<?xml version="1.0" standalone="no"?>
<!DOCTYPE svg PUBLIC "-//W3C//DTD SVG 20010904//EN"
 "http://www.w3.org/TR/2001/REC-SVG-20010904/DTD/svg10.dtd">
<svg version="1.0" xmlns="http://www.w3.org/2000/svg"
 width="640.000000pt" height="640.000000pt" viewBox="0 0 640.000000 640.000000"
 preserveAspectRatio="xMidYMid meet">
<metadata>
Created by potrace 1.11, written by Peter Selinger 2001-2013
</metadata>
<g transform="translate(0.000000,640.000000) scale(0.100000,-0.100000)"
fill="#000000" stroke="none">
<path d="M3126 6383 c-4 -5 -12 -9 -17 -9 -5 -1 -10 -2 -11 -3 -2 -2 -14 -4
-27 -7 -31 -6 -93 -39 -156 -85 -42 -30 -1255 -1231 -1255 -1242 0 -2 78 -4
173 -3 l172 1 43 -41 c23 -23 42 -45 42 -49 0 -6 132 -197 157 -226 13 -15 55
24 415 382 220 220 410 406 422 414 34 22 95 26 130 8 17 -9 137 -123 266
-253 l236 -238 139 -1 c77 0 167 -1 200 -1 l60 -1 74 76 c40 41 75 75 76 75 2
0 66 64 124 123 l33 35 -463 464 c-435 435 -508 502 -584 537 -16 7 -38 17
-48 23 -10 5 -22 6 -27 3 -6 -4 -10 -2 -10 3 0 5 -6 9 -12 10 -7 0 -37 2 -66
5 -29 2 -56 -1 -59 -6 -3 -5 -8 -4 -12 2 -4 6 -11 8 -15 4z"/>
<path d="M1565 4912 l-70 -3 -1 -1702 c0 -936 3 -1704 7 -1707 4 -3 167 -5
361 -5 l353 0 2 228 c0 126 4 231 7 234 3 3 1 15 -5 25 -8 14 -8 23 0 31 6 6
7 16 1 27 -5 9 -5 22 0 30 5 8 4 22 -1 33 -7 12 -7 22 0 30 6 8 6 18 1 27 -4
7 -4 24 0 36 5 13 6 25 2 28 -4 2 -5 160 -2 350 3 190 1 346 -3 346 -5 0 -5 4
-2 10 5 9 9 197 4 225 -1 6 -1 14 0 19 1 4 2 33 2 63 1 30 4 51 8 46 4 -4 39
-53 76 -108 38 -55 71 -102 74 -105 3 -3 11 -13 16 -22 11 -18 34 -51 130
-189 33 -47 65 -92 70 -101 33 -52 100 -144 109 -150 6 -4 8 -8 4 -8 -4 0 -1
-8 7 -17 14 -18 331 -472 437 -626 29 -43 59 -84 66 -92 6 -7 12 -18 12 -23 0
-6 4 -12 8 -14 4 -2 42 -52 83 -113 42 -60 93 -135 115 -166 l39 -56 225 1
225 1 3 1707 3 1706 -361 1 -360 1 -1 -873 c0 -479 -1 -889 -1 -910 0 -30 -3
-35 -14 -26 -7 6 -16 20 -20 31 -3 11 -13 28 -22 38 -29 31 -39 45 -52 71 -7
13 -16 26 -19 29 -13 11 -51 70 -51 79 0 5 -4 11 -8 13 -7 2 -95 124 -127 176
-5 9 -18 25 -27 36 -10 11 -18 25 -18 32 0 7 -4 14 -8 16 -5 2 -42 53 -83 113
-41 61 -77 112 -81 113 -5 2 -8 10 -8 17 0 7 -4 15 -8 17 -4 2 -37 46 -72 98
-36 52 -67 97 -70 100 -3 3 -9 12 -15 21 -20 34 -150 224 -156 229 -3 3 -46
64 -95 135 -48 72 -92 132 -96 133 -4 2 -8 10 -8 17 0 7 -4 15 -8 17 -4 2 -36
46 -72 98 -35 52 -77 114 -92 137 l-29 42 -157 3 c-86 2 -188 2 -227 0z"/>
<path d="M4179 4822 c0 -48 -1 -117 -1 -153 0 -37 3 -72 6 -78 4 -6 4 -11 -1
-11 -4 0 -8 -694 -8 -1543 l0 -1542 363 -2 362 -2 0 1027 c1 1774 2 2367 1
2378 -1 8 -105 11 -361 12 l-360 0 -1 -86z"/>
<path d="M759 4142 c-333 -334 -621 -629 -641 -657 -58 -84 -87 -167 -88 -255
-1 -40 2 -58 13 -110 6 -32 56 -127 91 -175 20 -27 239 -253 487 -501 l451
-452 149 150 c82 82 149 152 150 156 1 4 2 96 3 205 1 212 3 202 -50 248 -11
9 -69 68 -131 131 -62 64 -115 113 -118 110 -3 -3 -5 -1 -5 5 0 5 -40 50 -90
100 -50 50 -90 98 -90 106 0 9 -4 18 -9 21 -8 5 -8 48 1 86 2 8 111 124 243
258 132 133 242 245 245 248 7 7 7 934 0 933 -3 0 -278 -273 -611 -607z"/>
<path d="M5173 4281 l-149 -149 0 -206 -1 -207 189 -187 c103 -103 188 -185
188 -182 0 2 8 -7 17 -20 10 -14 30 -36 46 -49 61 -52 80 -141 41 -195 -11
-13 -123 -129 -251 -257 l-231 -232 0 -446 c0 -245 -3 -454 -7 -464 -5 -10 -3
-17 5 -17 7 0 247 234 534 521 287 286 529 525 537 530 8 5 12 9 9 9 -3 0 30
38 75 84 82 86 85 89 122 142 22 31 61 122 69 159 8 41 4 180 -6 180 -1 0 -3
8 -5 19 -5 27 -68 146 -77 146 -4 0 -8 6 -8 14 0 8 -3 16 -7 18 -5 2 -92 89
-196 194 -103 105 -189 188 -192 186 -3 -3 -5 2 -5 12 0 9 -4 15 -8 12 -5 -3
-15 6 -22 19 -7 13 -17 22 -22 19 -4 -3 -8 -1 -8 4 0 13 -88 100 -95 94 -3 -3
-5 -1 -5 5 0 7 -346 359 -384 391 -2 1 -71 -65 -153 -147z"/>
<path d="M2307 1422 c-92 -92 -173 -172 -180 -179 -7 -6 -31 -32 -54 -57 -24
-25 -43 -43 -43 -40 0 3 -11 -8 -25 -24 -14 -17 -25 -33 -25 -37 0 -3 206
-212 458 -464 406 -406 542 -531 577 -531 6 0 16 -5 23 -12 11 -11 31 -18 60
-20 6 -1 12 -4 12 -8 0 -3 10 -7 23 -8 156 -11 227 9 354 100 43 31 1253 1228
1253 1240 0 2 -150 3 -332 3 -183 -1 -340 2 -349 7 -9 4 -19 4 -23 1 -4 -4
-57 -7 -119 -8 l-112 -1 -234 -233 c-128 -129 -249 -242 -269 -251 -37 -18
-104 -18 -110 0 -2 5 -8 8 -13 5 -4 -3 -164 150 -354 340 -190 190 -346 345
-348 345 -1 -1 -78 -76 -170 -168z"/>
<path d="M6020 552 c-53 -18 -98 -74 -102 -129 -3 -35 20 -104 41 -121 90 -74
193 -55 245 46 45 88 -27 203 -129 208 -22 1 -47 -1 -55 -4z m107 -32 c11 0
54 -57 59 -78 3 -15 7 -32 9 -39 2 -7 0 -15 -6 -18 -5 -4 -7 -10 -4 -14 6 -11
-63 -87 -71 -78 -4 4 -13 2 -19 -3 -7 -6 -23 -8 -36 -6 -13 3 -29 5 -35 5 -22
2 -64 51 -78 90 -7 23 -10 41 -5 41 5 0 9 10 9 23 1 26 26 58 60 74 40 19 53
20 85 11 16 -4 31 -8 32 -8z"/>
<path d="M6011 469 c-28 -31 -29 -99 -1 -124 43 -39 140 -14 123 31 -5 14 -8
13 -23 -6 -18 -24 -63 -31 -82 -12 -5 5 -10 26 -10 46 0 59 44 85 84 49 22
-19 37 -9 22 15 -7 10 -27 18 -52 20 -31 2 -45 -2 -61 -19z"/>
</g>
</svg>
